<svg height="75" viewBox="0 0 75 75" width="75" xmlns="http://www.w3.org/2000/svg">
    <defs>
        <style>.a{fill:#f9ac19;}.b{fill:#fff;}</style>
    </defs>
    <g transform="translate(-31 -597)">
        <circle class="a" cx="37.5" cy="37.5" r="37.5" transform="translate(31 597)" />
        <path class="b"
            d="M13.5,31.5A1.5,1.5,0,0,0,15,33h6a1.5,1.5,0,0,0,1.5-1.5V30h-9ZM18,3a10.5,10.5,0,0,0-6,19.11V25.5A1.5,1.5,0,0,0,13.5,27h9A1.5,1.5,0,0,0,24,25.5V22.11A10.5,10.5,0,0,0,18,3Zm4.275,16.65L21,20.55V24H15V20.55l-1.275-.9a7.5,7.5,0,1,1,8.55,0Z"
            transform="translate(50.5 617)" />
    </g>
</svg>