<svg height="19.278" viewBox="0 0 27.54 19.278" width="27.54" xmlns="http://www.w3.org/2000/svg">
    <defs>
        <style>.a{fill:#fff;}</style>
    </defs>
    <path class="a"
        d="M4.131,10.512A2.754,2.754,0,1,0,1.377,7.758,2.757,2.757,0,0,0,4.131,10.512Zm19.278,0a2.754,2.754,0,1,0-2.754-2.754A2.757,2.757,0,0,0,23.409,10.512Zm1.377,1.377H22.032a2.746,2.746,0,0,0-1.941.8A6.294,6.294,0,0,1,23.323,17.4h2.84A1.376,1.376,0,0,0,27.54,16.02V14.643A2.757,2.757,0,0,0,24.786,11.889Zm-11.016,0a4.82,4.82,0,1,0-4.82-4.82A4.817,4.817,0,0,0,13.77,11.889Zm3.3,1.377h-.357a6.654,6.654,0,0,1-5.9,0h-.357a4.958,4.958,0,0,0-4.957,4.957v1.239a2.066,2.066,0,0,0,2.066,2.066H19.967a2.066,2.066,0,0,0,2.066-2.066V18.223A4.958,4.958,0,0,0,17.075,13.266Zm-9.626-.577a2.746,2.746,0,0,0-1.941-.8H2.754A2.757,2.757,0,0,0,0,14.643V16.02A1.376,1.376,0,0,0,1.377,17.4H4.213A6.31,6.31,0,0,1,7.449,12.689Z"
        transform="translate(0 -2.25)" />
</svg>