<svg height="35" viewBox="0 0 35 35" width="35" xmlns="http://www.w3.org/2000/svg">
    <defs>
        <style>.a{fill:#50b900;}.b{fill:#fafafa;}</style>
    </defs>
    <g transform="translate(-109 -697)">
        <circle class="a" cx="17.5" cy="17.5" r="17.5" transform="translate(109 697)" />
        <path class="b"
            d="M130.354,125.289a11.921,11.921,0,0,1-5.28-1.207,1.081,1.081,0,0,0-1.447.5l-.777,1.609a15.2,15.2,0,0,1-5.608-5.608l1.611-.777a1.082,1.082,0,0,0,.5-1.447,11.88,11.88,0,0,1-1.209-5.28,1.08,1.08,0,0,0-1.08-1.08H113.08a1.08,1.08,0,0,0-1.08,1.08,18.375,18.375,0,0,0,18.354,18.354,1.08,1.08,0,0,0,1.08-1.08v-3.986A1.08,1.08,0,0,0,130.354,125.289Z"
            transform="translate(4.558 592.558)" />
    </g>
</svg>