<svg height="7.937" viewBox="0 0 12.348 7.937" width="12.348" xmlns="http://www.w3.org/2000/svg">
    <defs>
        <style>.a{fill:#afafaf;}</style>
    </defs>
    <g transform="translate(-2.252 -7.875)">
        <path class="a"
            d="M8.419,7.875c-2.216,0-3.963,1.395-6.052,3.674a.436.436,0,0,0,0,.587c1.789,1.976,3.365,3.677,6.055,3.677,2.657,0,4.649-2.141,6.066-3.693a.432.432,0,0,0,.014-.57C13.055,9.8,11.056,7.875,8.419,7.875Zm.121,6.446A2.48,2.48,0,1,1,10.9,11.959,2.481,2.481,0,0,1,8.54,14.321Z" />
        <path class="a"
            d="M15.265,13.969a1.3,1.3,0,0,1,.085-.466l-.085,0a1.764,1.764,0,1,0,1.764,1.764c0-.036,0-.072,0-.107a1.222,1.222,0,0,1-.5.107A1.279,1.279,0,0,1,15.265,13.969Z"
            transform="translate(-6.84 -3.42)" />
    </g>
</svg>